<svg id="visual" viewBox="0 0 900 300" width="900" height="300" xmlns="http://www.w3.org/2000/svg" xmlns:xlink="http://www.w3.org/1999/xlink" version="1.1"><path d="M0 19L90 31L180 25L270 34L360 7L450 13L540 10L630 7L720 7L810 10L900 34L900 0L810 0L720 0L630 0L540 0L450 0L360 0L270 0L180 0L90 0L0 0Z" fill="#004e45"></path><path d="M0 46L90 52L180 43L270 40L360 22L450 19L540 31L630 25L720 25L810 43L900 46L900 32L810 8L720 5L630 5L540 8L450 11L360 5L270 32L180 23L90 29L0 17Z" fill="#0e6b61"></path><path d="M0 70L90 70L180 64L270 49L360 46L450 34L540 46L630 31L720 34L810 46L900 58L900 44L810 41L720 23L630 23L540 29L450 17L360 20L270 38L180 41L90 50L0 44Z" fill="#1d8980"></path><path d="M0 73L90 88L180 76L270 73L360 49L450 55L540 64L630 34L720 49L810 52L900 61L900 56L810 44L720 32L630 29L540 44L450 32L360 44L270 47L180 62L90 68L0 68Z" fill="#2ba8a1"></path><path d="M0 85L90 91L180 97L270 88L360 58L450 64L540 70L630 55L720 67L810 55L900 79L900 59L810 50L720 47L630 32L540 62L450 53L360 47L270 71L180 74L90 86L0 71Z" fill="#38c9c4"></path><path d="M0 112L90 106L180 127L270 109L360 88L450 79L540 106L630 67L720 88L810 79L900 121L900 77L810 53L720 65L630 53L540 68L450 62L360 56L270 86L180 95L90 89L0 83Z" fill="#38c9c4"></path><path d="M0 139L90 118L180 130L270 121L360 97L450 91L540 112L630 82L720 100L810 91L900 148L900 119L810 77L720 86L630 65L540 104L450 77L360 86L270 107L180 125L90 104L0 110Z" fill="#38c9c4"></path><path d="M0 175L90 223L180 157L270 163L360 145L450 181L540 196L630 175L720 133L810 130L900 184L900 146L810 89L720 98L630 80L540 110L450 89L360 95L270 119L180 128L90 116L0 137Z" fill="#2ba8a1"></path><path d="M0 190L90 232L180 178L270 193L360 187L450 211L540 217L630 217L720 139L810 166L900 214L900 182L810 128L720 131L630 173L540 194L450 179L360 143L270 161L180 155L90 221L0 173Z" fill="#1d8980"></path><path d="M0 286L90 256L180 244L270 244L360 244L450 238L540 271L630 274L720 259L810 253L900 268L900 212L810 164L720 137L630 215L540 215L450 209L360 185L270 191L180 176L90 230L0 188Z" fill="#0e6b61"></path><path d="M0 301L90 301L180 301L270 301L360 301L450 301L540 301L630 301L720 301L810 301L900 301L900 266L810 251L720 257L630 272L540 269L450 236L360 242L270 242L180 242L90 254L0 284Z" fill="#004e45"></path></svg>